<svg width="109" height="22" viewBox="0 0 109 22" fill="none" xmlns="http://www.w3.org/2000/svg">
<g clip-path="url(#clip0_1_44)">
<path d="M107.68 10.7731L104.203 7.34198C103.726 6.89721 102.976 6.89721 102.499 7.27844C102.021 7.72322 102.021 8.42216 102.43 8.86693L104.407 10.8367H90.2271C89.5454 10.8367 89 11.345 89 11.9804C89 12.6158 89.5454 13.1241 90.2271 13.1241H104.476L102.499 15.0938C102.021 15.5386 102.09 16.2375 102.567 16.6823C102.771 16.8729 103.112 17 103.385 17C103.726 17 103.998 16.8729 104.271 16.6823L107.748 13.2512C108.362 12.4887 108.362 11.4721 107.68 10.7731Z" fill="#575445"/>
</g>
<path d="M6.66 17L4.17 12.725H2.52V17H1.155V6.545H4.53C5.32 6.545 5.985 6.68 6.525 6.95C7.075 7.22 7.485 7.585 7.755 8.045C8.025 8.505 8.16 9.03 8.16 9.62C8.16 10.34 7.95 10.975 7.53 11.525C7.12 12.075 6.5 12.44 5.67 12.62L8.295 17H6.66ZM2.52 11.63H4.53C5.27 11.63 5.825 11.45 6.195 11.09C6.565 10.72 6.75 10.23 6.75 9.62C6.75 9 6.565 8.52 6.195 8.18C5.835 7.84 5.28 7.67 4.53 7.67H2.52V11.63ZM17.781 12.575C17.781 12.835 17.766 13.11 17.736 13.4H11.166C11.216 14.21 11.491 14.845 11.991 15.305C12.501 15.755 13.116 15.98 13.836 15.98C14.426 15.98 14.916 15.845 15.306 15.575C15.706 15.295 15.986 14.925 16.146 14.465H17.616C17.396 15.255 16.956 15.9 16.296 16.4C15.636 16.89 14.816 17.135 13.836 17.135C13.056 17.135 12.356 16.96 11.736 16.61C11.126 16.26 10.646 15.765 10.296 15.125C9.94598 14.475 9.77098 13.725 9.77098 12.875C9.77098 12.025 9.94098 11.28 10.281 10.64C10.621 10 11.096 9.51 11.706 9.17C12.326 8.82 13.036 8.645 13.836 8.645C14.616 8.645 15.306 8.815 15.906 9.155C16.506 9.495 16.966 9.965 17.286 10.565C17.616 11.155 17.781 11.825 17.781 12.575ZM16.371 12.29C16.371 11.77 16.256 11.325 16.026 10.955C15.796 10.575 15.481 10.29 15.081 10.1C14.691 9.9 14.256 9.8 13.776 9.8C13.086 9.8 12.496 10.02 12.006 10.46C11.526 10.9 11.251 11.51 11.181 12.29H16.371ZM19.0727 12.86C19.0727 12.02 19.2427 11.285 19.5827 10.655C19.9227 10.015 20.3877 9.52 20.9777 9.17C21.5777 8.82 22.2427 8.645 22.9727 8.645C23.6927 8.645 24.3177 8.8 24.8477 9.11C25.3777 9.42 25.7727 9.81 26.0327 10.28V8.78H27.4127V17H26.0327V15.47C25.7627 15.95 25.3577 16.35 24.8177 16.67C24.2877 16.98 23.6677 17.135 22.9577 17.135C22.2277 17.135 21.5677 16.955 20.9777 16.595C20.3877 16.235 19.9227 15.73 19.5827 15.08C19.2427 14.43 19.0727 13.69 19.0727 12.86ZM26.0327 12.875C26.0327 12.255 25.9077 11.715 25.6577 11.255C25.4077 10.795 25.0677 10.445 24.6377 10.205C24.2177 9.955 23.7527 9.83 23.2427 9.83C22.7327 9.83 22.2677 9.95 21.8477 10.19C21.4277 10.43 21.0927 10.78 20.8427 11.24C20.5927 11.7 20.4677 12.24 20.4677 12.86C20.4677 13.49 20.5927 14.04 20.8427 14.51C21.0927 14.97 21.4277 15.325 21.8477 15.575C22.2677 15.815 22.7327 15.935 23.2427 15.935C23.7527 15.935 24.2177 15.815 24.6377 15.575C25.0677 15.325 25.4077 14.97 25.6577 14.51C25.9077 14.04 26.0327 13.495 26.0327 12.875ZM29.2095 12.86C29.2095 12.02 29.3795 11.285 29.7195 10.655C30.0595 10.015 30.5245 9.52 31.1145 9.17C31.7145 8.82 32.3845 8.645 33.1245 8.645C33.7645 8.645 34.3595 8.795 34.9095 9.095C35.4595 9.385 35.8795 9.77 36.1695 10.25V5.9H37.5495V17H36.1695V15.455C35.8995 15.945 35.4995 16.35 34.9695 16.67C34.4395 16.98 33.8195 17.135 33.1095 17.135C32.3795 17.135 31.7145 16.955 31.1145 16.595C30.5245 16.235 30.0595 15.73 29.7195 15.08C29.3795 14.43 29.2095 13.69 29.2095 12.86ZM36.1695 12.875C36.1695 12.255 36.0445 11.715 35.7945 11.255C35.5445 10.795 35.2045 10.445 34.7745 10.205C34.3545 9.955 33.8895 9.83 33.3795 9.83C32.8695 9.83 32.4045 9.95 31.9845 10.19C31.5645 10.43 31.2295 10.78 30.9795 11.24C30.7295 11.7 30.6045 12.24 30.6045 12.86C30.6045 13.49 30.7295 14.04 30.9795 14.51C31.2295 14.97 31.5645 15.325 31.9845 15.575C32.4045 15.815 32.8695 15.935 33.3795 15.935C33.8895 15.935 34.3545 15.815 34.7745 15.575C35.2045 15.325 35.5445 14.97 35.7945 14.51C36.0445 14.04 36.1695 13.495 36.1695 12.875ZM53.7402 8.63C54.3802 8.63 54.9502 8.765 55.4502 9.035C55.9502 9.295 56.3452 9.69 56.6352 10.22C56.9252 10.75 57.0702 11.395 57.0702 12.155V17H55.7202V12.35C55.7202 11.53 55.5152 10.905 55.1052 10.475C54.7052 10.035 54.1602 9.815 53.4702 9.815C52.7602 9.815 52.1952 10.045 51.7752 10.505C51.3552 10.955 51.1452 11.61 51.1452 12.47V17H49.7952V12.35C49.7952 11.53 49.5902 10.905 49.1802 10.475C48.7802 10.035 48.2352 9.815 47.5452 9.815C46.8352 9.815 46.2702 10.045 45.8502 10.505C45.4302 10.955 45.2202 11.61 45.2202 12.47V17H43.8552V8.78H45.2202V9.965C45.4902 9.535 45.8502 9.205 46.3002 8.975C46.7602 8.745 47.2652 8.63 47.8152 8.63C48.5052 8.63 49.1152 8.785 49.6452 9.095C50.1752 9.405 50.5702 9.86 50.8302 10.46C51.0602 9.88 51.4402 9.43 51.9702 9.11C52.5002 8.79 53.0902 8.63 53.7402 8.63ZM62.8943 17.135C62.1243 17.135 61.4243 16.96 60.7943 16.61C60.1743 16.26 59.6843 15.765 59.3243 15.125C58.9743 14.475 58.7993 13.725 58.7993 12.875C58.7993 12.035 58.9793 11.295 59.3393 10.655C59.7093 10.005 60.2093 9.51 60.8393 9.17C61.4693 8.82 62.1743 8.645 62.9543 8.645C63.7343 8.645 64.4393 8.82 65.0693 9.17C65.6993 9.51 66.1943 10 66.5543 10.64C66.9243 11.28 67.1093 12.025 67.1093 12.875C67.1093 13.725 66.9193 14.475 66.5393 15.125C66.1693 15.765 65.6643 16.26 65.0243 16.61C64.3843 16.96 63.6743 17.135 62.8943 17.135ZM62.8943 15.935C63.3843 15.935 63.8443 15.82 64.2743 15.59C64.7043 15.36 65.0493 15.015 65.3093 14.555C65.5793 14.095 65.7143 13.535 65.7143 12.875C65.7143 12.215 65.5843 11.655 65.3243 11.195C65.0643 10.735 64.7243 10.395 64.3043 10.175C63.8843 9.945 63.4293 9.83 62.9393 9.83C62.4393 9.83 61.9793 9.945 61.5593 10.175C61.1493 10.395 60.8193 10.735 60.5693 11.195C60.3193 11.655 60.1943 12.215 60.1943 12.875C60.1943 13.545 60.3143 14.11 60.5543 14.57C60.8043 15.03 61.1343 15.375 61.5443 15.605C61.9543 15.825 62.4043 15.935 62.8943 15.935ZM70.269 10.115C70.509 9.645 70.849 9.28 71.289 9.02C71.739 8.76 72.284 8.63 72.924 8.63V10.04H72.564C71.034 10.04 70.269 10.87 70.269 12.53V17H68.904V8.78H70.269V10.115ZM81.9997 12.575C81.9997 12.835 81.9847 13.11 81.9547 13.4H75.3847C75.4347 14.21 75.7097 14.845 76.2097 15.305C76.7197 15.755 77.3347 15.98 78.0547 15.98C78.6447 15.98 79.1347 15.845 79.5247 15.575C79.9247 15.295 80.2047 14.925 80.3647 14.465H81.8347C81.6147 15.255 81.1747 15.9 80.5147 16.4C79.8547 16.89 79.0347 17.135 78.0547 17.135C77.2747 17.135 76.5747 16.96 75.9547 16.61C75.3447 16.26 74.8647 15.765 74.5147 15.125C74.1647 14.475 73.9897 13.725 73.9897 12.875C73.9897 12.025 74.1597 11.28 74.4997 10.64C74.8397 10 75.3147 9.51 75.9247 9.17C76.5447 8.82 77.2547 8.645 78.0547 8.645C78.8347 8.645 79.5247 8.815 80.1247 9.155C80.7247 9.495 81.1847 9.965 81.5047 10.565C81.8347 11.155 81.9997 11.825 81.9997 12.575ZM80.5897 12.29C80.5897 11.77 80.4747 11.325 80.2447 10.955C80.0147 10.575 79.6997 10.29 79.2997 10.1C78.9097 9.9 78.4747 9.8 77.9947 9.8C77.3047 9.8 76.7147 10.02 76.2247 10.46C75.7447 10.9 75.4697 11.51 75.3997 12.29H80.5897Z" fill="#575445"/>
<defs>
<clipPath id="clip0_1_44">
<rect width="20" height="10" fill="white" transform="translate(89 7)"/>
</clipPath>
</defs>
</svg>
