<svg width="156" height="21" viewBox="0 0 156 21" fill="none" xmlns="http://www.w3.org/2000/svg">
<g clip-path="url(#clip0_1_134)">
<path d="M154.68 9.77312L151.203 6.34198C150.726 5.89721 149.976 5.89721 149.499 6.27844C149.021 6.72322 149.021 7.42216 149.43 7.86693L151.407 9.83666H137.227C136.545 9.83666 136 10.345 136 10.9804C136 11.6158 136.545 12.1241 137.227 12.1241H151.476L149.499 14.0938C149.021 14.5386 149.09 15.2375 149.567 15.6823C149.771 15.8729 150.112 16 150.385 16C150.726 16 150.998 15.8729 151.271 15.6823L154.748 12.2512C155.362 11.4887 155.362 10.4721 154.68 9.77312Z" fill="#575445"/>
</g>
<path d="M10.142 5.242L6.46 15H4.99L1.308 5.242H2.666L5.732 13.656L8.798 5.242H10.142ZM12.1969 6.082C11.9543 6.082 11.7489 5.998 11.5809 5.83C11.4129 5.662 11.3289 5.45667 11.3289 5.214C11.3289 4.97133 11.4129 4.766 11.5809 4.598C11.7489 4.43 11.9543 4.346 12.1969 4.346C12.4303 4.346 12.6263 4.43 12.7849 4.598C12.9529 4.766 13.0369 4.97133 13.0369 5.214C13.0369 5.45667 12.9529 5.662 12.7849 5.83C12.6263 5.998 12.4303 6.082 12.1969 6.082ZM12.8129 7.328V15H11.5389V7.328H12.8129ZM21.9843 10.87C21.9843 11.1127 21.9703 11.3693 21.9423 11.64H15.8103C15.8569 12.396 16.1136 12.9887 16.5803 13.418C17.0563 13.838 17.6303 14.048 18.3023 14.048C18.8529 14.048 19.3103 13.922 19.6743 13.67C20.0476 13.4087 20.3089 13.0633 20.4583 12.634H21.8303C21.6249 13.3713 21.2143 13.9733 20.5983 14.44C19.9823 14.8973 19.2169 15.126 18.3023 15.126C17.5743 15.126 16.9209 14.9627 16.3423 14.636C15.7729 14.3093 15.3249 13.8473 14.9983 13.25C14.6716 12.6433 14.5083 11.9433 14.5083 11.15C14.5083 10.3567 14.6669 9.66133 14.9843 9.064C15.3016 8.46667 15.7449 8.00933 16.3143 7.692C16.8929 7.36533 17.5556 7.202 18.3023 7.202C19.0303 7.202 19.6743 7.36067 20.2343 7.678C20.7943 7.99533 21.2236 8.434 21.5223 8.994C21.8303 9.54467 21.9843 10.17 21.9843 10.87ZM20.6683 10.604C20.6683 10.1187 20.5609 9.70333 20.3463 9.358C20.1316 9.00333 19.8376 8.73733 19.4643 8.56C19.1003 8.37333 18.6943 8.28 18.2463 8.28C17.6023 8.28 17.0516 8.48533 16.5943 8.896C16.1463 9.30667 15.8896 9.876 15.8243 10.604H20.6683ZM33.8859 7.328L31.4919 15H30.1759L28.3279 8.91L26.4799 15H25.1639L22.7559 7.328H24.0579L25.8219 13.768L27.7259 7.328H29.0279L30.8899 13.782L32.6259 7.328H33.8859Z" fill="#575445"/>
<path d="M46.335 13.675H41.775L40.935 16H39.495L43.275 5.605H44.85L48.615 16H47.175L46.335 13.675ZM45.945 12.565L44.055 7.285L42.165 12.565H45.945ZM49.7524 11.875C49.7524 11.025 49.9224 10.285 50.2624 9.655C50.6024 9.015 51.0724 8.52 51.6724 8.17C52.2824 7.82 52.9774 7.645 53.7574 7.645C54.7674 7.645 55.5974 7.89 56.2474 8.38C56.9074 8.87 57.3424 9.55 57.5524 10.42H56.0824C55.9424 9.92 55.6674 9.525 55.2574 9.235C54.8574 8.945 54.3574 8.8 53.7574 8.8C52.9774 8.8 52.3474 9.07 51.8674 9.61C51.3874 10.14 51.1474 10.895 51.1474 11.875C51.1474 12.865 51.3874 13.63 51.8674 14.17C52.3474 14.71 52.9774 14.98 53.7574 14.98C54.3574 14.98 54.8574 14.84 55.2574 14.56C55.6574 14.28 55.9324 13.88 56.0824 13.36H57.5524C57.3324 14.2 56.8924 14.875 56.2324 15.385C55.5724 15.885 54.7474 16.135 53.7574 16.135C52.9774 16.135 52.2824 15.96 51.6724 15.61C51.0724 15.26 50.6024 14.765 50.2624 14.125C49.9224 13.485 49.7524 12.735 49.7524 11.875ZM58.8638 11.875C58.8638 11.025 59.0338 10.285 59.3738 9.655C59.7138 9.015 60.1838 8.52 60.7838 8.17C61.3938 7.82 62.0888 7.645 62.8688 7.645C63.8788 7.645 64.7088 7.89 65.3588 8.38C66.0188 8.87 66.4538 9.55 66.6638 10.42H65.1938C65.0538 9.92 64.7788 9.525 64.3688 9.235C63.9688 8.945 63.4688 8.8 62.8688 8.8C62.0888 8.8 61.4588 9.07 60.9788 9.61C60.4988 10.14 60.2588 10.895 60.2588 11.875C60.2588 12.865 60.4988 13.63 60.9788 14.17C61.4588 14.71 62.0888 14.98 62.8688 14.98C63.4688 14.98 63.9688 14.84 64.3688 14.56C64.7688 14.28 65.0438 13.88 65.1938 13.36H66.6638C66.4438 14.2 66.0038 14.875 65.3438 15.385C64.6838 15.885 63.8588 16.135 62.8688 16.135C62.0888 16.135 61.3938 15.96 60.7838 15.61C60.1838 15.26 59.7138 14.765 59.3738 14.125C59.0338 13.485 58.8638 12.735 58.8638 11.875ZM75.9851 11.575C75.9851 11.835 75.9701 12.11 75.9401 12.4H69.3701C69.4201 13.21 69.6951 13.845 70.1951 14.305C70.7051 14.755 71.3201 14.98 72.0401 14.98C72.6301 14.98 73.1201 14.845 73.5101 14.575C73.9101 14.295 74.1901 13.925 74.3501 13.465H75.8201C75.6001 14.255 75.1601 14.9 74.5001 15.4C73.8401 15.89 73.0201 16.135 72.0401 16.135C71.2601 16.135 70.5601 15.96 69.9401 15.61C69.3301 15.26 68.8501 14.765 68.5001 14.125C68.1501 13.475 67.9751 12.725 67.9751 11.875C67.9751 11.025 68.1451 10.28 68.4851 9.64C68.8251 9 69.3001 8.51 69.9101 8.17C70.5301 7.82 71.2401 7.645 72.0401 7.645C72.8201 7.645 73.5101 7.815 74.1101 8.155C74.7101 8.495 75.1701 8.965 75.4901 9.565C75.8201 10.155 75.9851 10.825 75.9851 11.575ZM74.5751 11.29C74.5751 10.77 74.4601 10.325 74.2301 9.955C74.0001 9.575 73.6851 9.29 73.2851 9.1C72.8951 8.9 72.4601 8.8 71.9801 8.8C71.2901 8.8 70.7001 9.02 70.2101 9.46C69.7301 9.9 69.4551 10.51 69.3851 11.29H74.5751ZM80.6968 16.135C80.0668 16.135 79.5018 16.03 79.0018 15.82C78.5018 15.6 78.1068 15.3 77.8168 14.92C77.5268 14.53 77.3668 14.085 77.3368 13.585H78.7468C78.7868 13.995 78.9768 14.33 79.3168 14.59C79.6668 14.85 80.1218 14.98 80.6818 14.98C81.2018 14.98 81.6118 14.865 81.9118 14.635C82.2118 14.405 82.3618 14.115 82.3618 13.765C82.3618 13.405 82.2018 13.14 81.8818 12.97C81.5618 12.79 81.0668 12.615 80.3968 12.445C79.7868 12.285 79.2868 12.125 78.8968 11.965C78.5168 11.795 78.1868 11.55 77.9068 11.23C77.6368 10.9 77.5018 10.47 77.5018 9.94C77.5018 9.52 77.6268 9.135 77.8768 8.785C78.1268 8.435 78.4818 8.16 78.9418 7.96C79.4018 7.75 79.9268 7.645 80.5168 7.645C81.4268 7.645 82.1618 7.875 82.7218 8.335C83.2818 8.795 83.5818 9.425 83.6218 10.225H82.2568C82.2268 9.795 82.0518 9.45 81.7318 9.19C81.4218 8.93 81.0018 8.8 80.4718 8.8C79.9818 8.8 79.5918 8.905 79.3018 9.115C79.0118 9.325 78.8668 9.6 78.8668 9.94C78.8668 10.21 78.9518 10.435 79.1218 10.615C79.3018 10.785 79.5218 10.925 79.7818 11.035C80.0518 11.135 80.4218 11.25 80.8918 11.38C81.4818 11.54 81.9618 11.7 82.3318 11.86C82.7018 12.01 83.0168 12.24 83.2768 12.55C83.5468 12.86 83.6868 13.265 83.6968 13.765C83.6968 14.215 83.5718 14.62 83.3218 14.98C83.0718 15.34 82.7168 15.625 82.2568 15.835C81.8068 16.035 81.2868 16.135 80.6968 16.135ZM88.5338 16.135C87.9038 16.135 87.3388 16.03 86.8388 15.82C86.3388 15.6 85.9438 15.3 85.6538 14.92C85.3638 14.53 85.2038 14.085 85.1738 13.585H86.5838C86.6238 13.995 86.8138 14.33 87.1538 14.59C87.5038 14.85 87.9588 14.98 88.5188 14.98C89.0388 14.98 89.4488 14.865 89.7488 14.635C90.0488 14.405 90.1988 14.115 90.1988 13.765C90.1988 13.405 90.0388 13.14 89.7188 12.97C89.3988 12.79 88.9038 12.615 88.2338 12.445C87.6238 12.285 87.1238 12.125 86.7338 11.965C86.3538 11.795 86.0238 11.55 85.7438 11.23C85.4738 10.9 85.3388 10.47 85.3388 9.94C85.3388 9.52 85.4638 9.135 85.7138 8.785C85.9638 8.435 86.3188 8.16 86.7788 7.96C87.2388 7.75 87.7638 7.645 88.3538 7.645C89.2638 7.645 89.9988 7.875 90.5588 8.335C91.1188 8.795 91.4188 9.425 91.4588 10.225H90.0938C90.0638 9.795 89.8888 9.45 89.5688 9.19C89.2588 8.93 88.8388 8.8 88.3088 8.8C87.8188 8.8 87.4288 8.905 87.1388 9.115C86.8488 9.325 86.7038 9.6 86.7038 9.94C86.7038 10.21 86.7888 10.435 86.9588 10.615C87.1388 10.785 87.3588 10.925 87.6188 11.035C87.8888 11.135 88.2588 11.25 88.7288 11.38C89.3188 11.54 89.7988 11.7 90.1688 11.86C90.5388 12.01 90.8538 12.24 91.1138 12.55C91.3838 12.86 91.5238 13.265 91.5338 13.765C91.5338 14.215 91.4088 14.62 91.1588 14.98C90.9088 15.34 90.5538 15.625 90.0938 15.835C89.6438 16.035 89.1238 16.135 88.5338 16.135ZM97.0457 16.135C96.2757 16.135 95.5757 15.96 94.9457 15.61C94.3257 15.26 93.8357 14.765 93.4757 14.125C93.1257 13.475 92.9507 12.725 92.9507 11.875C92.9507 11.035 93.1307 10.295 93.4907 9.655C93.8607 9.005 94.3607 8.51 94.9907 8.17C95.6207 7.82 96.3257 7.645 97.1057 7.645C97.8857 7.645 98.5907 7.82 99.2207 8.17C99.8507 8.51 100.346 9 100.706 9.64C101.076 10.28 101.261 11.025 101.261 11.875C101.261 12.725 101.071 13.475 100.691 14.125C100.321 14.765 99.8157 15.26 99.1757 15.61C98.5357 15.96 97.8257 16.135 97.0457 16.135ZM97.0457 14.935C97.5357 14.935 97.9957 14.82 98.4257 14.59C98.8557 14.36 99.2007 14.015 99.4607 13.555C99.7307 13.095 99.8657 12.535 99.8657 11.875C99.8657 11.215 99.7357 10.655 99.4757 10.195C99.2157 9.735 98.8757 9.395 98.4557 9.175C98.0357 8.945 97.5807 8.83 97.0907 8.83C96.5907 8.83 96.1307 8.945 95.7107 9.175C95.3007 9.395 94.9707 9.735 94.7207 10.195C94.4707 10.655 94.3457 11.215 94.3457 11.875C94.3457 12.545 94.4657 13.11 94.7057 13.57C94.9557 14.03 95.2857 14.375 95.6957 14.605C96.1057 14.825 96.5557 14.935 97.0457 14.935ZM104.42 9.115C104.66 8.645 105 8.28 105.44 8.02C105.89 7.76 106.435 7.63 107.075 7.63V9.04H106.715C105.185 9.04 104.42 9.87 104.42 11.53V16H103.055V7.78H104.42V9.115ZM109.356 6.445C109.096 6.445 108.876 6.355 108.696 6.175C108.516 5.995 108.426 5.775 108.426 5.515C108.426 5.255 108.516 5.035 108.696 4.855C108.876 4.675 109.096 4.585 109.356 4.585C109.606 4.585 109.816 4.675 109.986 4.855C110.166 5.035 110.256 5.255 110.256 5.515C110.256 5.775 110.166 5.995 109.986 6.175C109.816 6.355 109.606 6.445 109.356 6.445ZM110.016 7.78V16H108.651V7.78H110.016ZM119.843 11.575C119.843 11.835 119.828 12.11 119.798 12.4H113.228C113.278 13.21 113.553 13.845 114.053 14.305C114.563 14.755 115.178 14.98 115.898 14.98C116.488 14.98 116.978 14.845 117.368 14.575C117.768 14.295 118.048 13.925 118.208 13.465H119.678C119.458 14.255 119.018 14.9 118.358 15.4C117.698 15.89 116.878 16.135 115.898 16.135C115.118 16.135 114.418 15.96 113.798 15.61C113.188 15.26 112.708 14.765 112.358 14.125C112.008 13.475 111.833 12.725 111.833 11.875C111.833 11.025 112.003 10.28 112.343 9.64C112.683 9 113.158 8.51 113.768 8.17C114.388 7.82 115.098 7.645 115.898 7.645C116.678 7.645 117.368 7.815 117.968 8.155C118.568 8.495 119.028 8.965 119.348 9.565C119.678 10.155 119.843 10.825 119.843 11.575ZM118.433 11.29C118.433 10.77 118.318 10.325 118.088 9.955C117.858 9.575 117.543 9.29 117.143 9.1C116.753 8.9 116.318 8.8 115.838 8.8C115.148 8.8 114.558 9.02 114.068 9.46C113.588 9.9 113.313 10.51 113.243 11.29H118.433ZM124.554 16.135C123.924 16.135 123.359 16.03 122.859 15.82C122.359 15.6 121.964 15.3 121.674 14.92C121.384 14.53 121.224 14.085 121.194 13.585H122.604C122.644 13.995 122.834 14.33 123.174 14.59C123.524 14.85 123.979 14.98 124.539 14.98C125.059 14.98 125.469 14.865 125.769 14.635C126.069 14.405 126.219 14.115 126.219 13.765C126.219 13.405 126.059 13.14 125.739 12.97C125.419 12.79 124.924 12.615 124.254 12.445C123.644 12.285 123.144 12.125 122.754 11.965C122.374 11.795 122.044 11.55 121.764 11.23C121.494 10.9 121.359 10.47 121.359 9.94C121.359 9.52 121.484 9.135 121.734 8.785C121.984 8.435 122.339 8.16 122.799 7.96C123.259 7.75 123.784 7.645 124.374 7.645C125.284 7.645 126.019 7.875 126.579 8.335C127.139 8.795 127.439 9.425 127.479 10.225H126.114C126.084 9.795 125.909 9.45 125.589 9.19C125.279 8.93 124.859 8.8 124.329 8.8C123.839 8.8 123.449 8.905 123.159 9.115C122.869 9.325 122.724 9.6 122.724 9.94C122.724 10.21 122.809 10.435 122.979 10.615C123.159 10.785 123.379 10.925 123.639 11.035C123.909 11.135 124.279 11.25 124.749 11.38C125.339 11.54 125.819 11.7 126.189 11.86C126.559 12.01 126.874 12.24 127.134 12.55C127.404 12.86 127.544 13.265 127.554 13.765C127.554 14.215 127.429 14.62 127.179 14.98C126.929 15.34 126.574 15.625 126.114 15.835C125.664 16.035 125.144 16.135 124.554 16.135Z" fill="#575445"/>
<defs>
<clipPath id="clip0_1_134">
<rect width="20" height="10" fill="white" transform="translate(136 6)"/>
</clipPath>
</defs>
</svg>
